<svg width="21" height="32" viewBox="0 0 21 32" fill="none" xmlns="http://www.w3.org/2000/svg">
<path d="M10.5001 0.600259C9.11851 0.590801 7.74875 0.846859 6.47044 1.35355C5.19212 1.86025 4.03074 2.60747 3.05378 3.5518C2.07682 4.49613 1.30378 5.61872 0.779583 6.85435C0.255382 8.08997 -0.00952359 9.41398 0.000261512 10.7494C0.0294602 17.347 10.402 31.4 10.402 31.4C10.402 31.4 21.0303 17.7274 20.9999 10.7957C20.9754 5.03474 16.5372 0.600259 10.5001 0.600259ZM10.5001 17.3086C9.15505 17.3083 7.84027 16.9226 6.72201 16.2001C5.60375 15.4777 4.73224 14.4509 4.21767 13.2497C3.7031 12.0484 3.56859 10.7267 3.83114 9.45157C4.09368 8.17645 4.7415 7.00522 5.69268 6.08596C6.64386 5.16671 7.85567 4.54073 9.1749 4.28717C10.4941 4.03361 11.8615 4.16386 13.1041 4.66145C14.3468 5.15904 15.4089 6.00162 16.1561 7.08265C16.9034 8.16369 17.3022 9.43462 17.3022 10.7348C17.301 12.4773 16.5841 14.148 15.309 15.3798C14.034 16.6116 12.3051 17.3038 10.5024 17.3041L10.5001 17.3086Z" fill="#231F20"/>
<path d="M10.5 6.20001L11.5816 8.50421L14 8.87368L12.2505 10.6674L12.6633 13.2L10.5 12.0042L8.33671 13.2L8.75047 10.6674L7 8.87368L9.41835 8.50421L10.5 6.20001Z" fill="#231F20"/>
</svg>
